<svg xmlns="http://www.w3.org/2000/svg" viewBox="0 0 16 16">
  <defs>
    <!-- 主渐变 - 现代蓝紫色调 -->
    <linearGradient id="mainGradient16" x1="0%" y1="0%" x2="100%" y2="100%">
      <stop offset="0%" style="stop-color:#667eea;stop-opacity:1" />
      <stop offset="50%" style="stop-color:#764ba2;stop-opacity:1" />
      <stop offset="100%" style="stop-color:#f093fb;stop-opacity:1" />
    </linearGradient>
    
    <!-- 内部渐变 -->
    <linearGradient id="innerGradient16" x1="0%" y1="0%" x2="100%" y2="100%">
      <stop offset="0%" style="stop-color:#4facfe;stop-opacity:1" />
      <stop offset="100%" style="stop-color:#00f2fe;stop-opacity:1" />
    </linearGradient>
  </defs>
  
  <!-- 外圈背景 -->
  <circle cx="8" cy="8" r="7.5" fill="url(#mainGradient16)"/>
  
  <!-- 中心图标区域 -->
  <g transform="translate(8,8)">
    <!-- 导航指针主体 - 简化版 -->
    <g fill="white">
      <!-- 主指针 - 上 -->
      <path d="M 0,-4 L -1.5,-2 L -0.5,-2 L -0.5,-1 L 0.5,-1 L 0.5,-2 L 1.5,-2 Z" fill="white" opacity="0.95"/>
      
      <!-- 副指针 - 右 -->
      <path d="M 4,0 L 2,-1.5 L 2,-0.5 L 1,-0.5 L 1,0.5 L 2,0.5 L 2,1.5 Z" fill="white" opacity="0.7"/>
      
      <!-- 副指针 - 下 -->
      <path d="M 0,4 L -1.5,2 L -0.5,2 L -0.5,1 L 0.5,1 L 0.5,2 L 1.5,2 Z" fill="white" opacity="0.5"/>
      
      <!-- 副指针 - 左 -->
      <path d="M -4,0 L -2,-1.5 L -2,-0.5 L -1,-0.5 L -1,0.5 L -2,0.5 L -2,1.5 Z" fill="white" opacity="0.5"/>
    </g>
    
    <!-- 中心圆点 -->
    <circle cx="0" cy="0" r="1" fill="url(#innerGradient16)"/>
  </g>
</svg>