<svg xmlns="http://www.w3.org/2000/svg" viewBox="0 0 48 48">
  <defs>
    <!-- 主渐变 - 现代蓝紫色调 -->
    <linearGradient id="mainGradient48" x1="0%" y1="0%" x2="100%" y2="100%">
      <stop offset="0%" style="stop-color:#667eea;stop-opacity:1" />
      <stop offset="50%" style="stop-color:#764ba2;stop-opacity:1" />
      <stop offset="100%" style="stop-color:#f093fb;stop-opacity:1" />
    </linearGradient>
    
    <!-- 内部渐变 -->
    <linearGradient id="innerGradient48" x1="0%" y1="0%" x2="100%" y2="100%">
      <stop offset="0%" style="stop-color:#4facfe;stop-opacity:1" />
      <stop offset="100%" style="stop-color:#00f2fe;stop-opacity:1" />
    </linearGradient>
    
    <!-- 阴影滤镜 -->
    <filter id="shadow48" x="-50%" y="-50%" width="200%" height="200%">
      <feDropShadow dx="0" dy="2" stdDeviation="3" flood-color="rgba(0,0,0,0.3)"/>
    </filter>
  </defs>
  
  <!-- 外圈背景 -->
  <circle cx="24" cy="24" r="22" fill="url(#mainGradient48)" filter="url(#shadow48)"/>
  
  <!-- 内圈装饰 -->
  <circle cx="24" cy="24" r="18" fill="none" stroke="rgba(255,255,255,0.2)" stroke-width="0.5"/>
  
  <!-- 中心图标区域 -->
  <g transform="translate(24,24)">
    <!-- 导航指针主体 -->
    <g fill="white">
      <!-- 主指针 - 上 -->
      <path d="M 0,-12 L -3,-6 L -1,-6 L -1,-3 L 1,-3 L 1,-6 L 3,-6 Z" fill="white" opacity="0.95"/>
      
      <!-- 副指针 - 右 -->
      <path d="M 12,0 L 6,-3 L 6,-1 L 3,-1 L 3,1 L 6,1 L 6,3 Z" fill="white" opacity="0.7"/>
      
      <!-- 副指针 - 下 -->
      <path d="M 0,12 L -3,6 L -1,6 L -1,3 L 1,3 L 1,6 L 3,6 Z" fill="white" opacity="0.5"/>
      
      <!-- 副指针 - 左 -->
      <path d="M -12,0 L -6,-3 L -6,-1 L -3,-1 L -3,1 L -6,1 L -6,3 Z" fill="white" opacity="0.5"/>
    </g>
    
    <!-- 中心圆点 -->
    <circle cx="0" cy="0" r="2.5" fill="white" opacity="0.9"/>
    <circle cx="0" cy="0" r="1.5" fill="url(#innerGradient48)"/>
    
    <!-- 装饰性圆环 -->
    <circle cx="0" cy="0" r="8" fill="none" stroke="rgba(255,255,255,0.3)" stroke-width="0.5" stroke-dasharray="1,2"/>
  </g>
</svg>